<svg width="40" height="40" viewBox="0 0 40 40" fill="none" xmlns="http://www.w3.org/2000/svg">
<path d="M15.1041 5.83334L15 12.5H4.16663C4.16663 12.5 4.16663 10.3608 4.16663 8.75001C4.16663 7.13918 5.47246 5.83334 7.08329 5.83334C8.69413 5.83334 15.1041 5.83334 15.1041 5.83334Z" fill="#37474F"/>
<path d="M25.0075 4.68917L26.5491 2.09167C26.7841 1.69584 26.6533 1.18417 26.2583 0.949175C25.8625 0.713341 25.3516 0.845008 25.1158 1.24001L23.495 3.97001C22.4075 3.56334 21.2316 3.33334 20 3.33334C18.7683 3.33334 17.5925 3.56334 16.5041 3.97084L14.8833 1.24084C14.6483 0.845841 14.1375 0.714175 13.7408 0.950008C13.345 1.18501 13.215 1.69667 13.45 2.09251L14.9916 4.69001C12.2408 6.29001 10.3183 9.15834 10.0416 12.5008H29.9583C29.6816 9.15751 27.7591 6.28917 25.0075 4.68917Z" fill="#00E676"/>
<path d="M15.8333 9.16667C16.2936 9.16667 16.6667 8.79357 16.6667 8.33333C16.6667 7.8731 16.2936 7.5 15.8333 7.5C15.3731 7.5 15 7.8731 15 8.33333C15 8.79357 15.3731 9.16667 15.8333 9.16667Z" fill="white"/>
<path d="M24.1667 9.16667C24.6269 9.16667 25 8.79357 25 8.33333C25 7.8731 24.6269 7.5 24.1667 7.5C23.7065 7.5 23.3334 7.8731 23.3334 8.33333C23.3334 8.79357 23.7065 9.16667 24.1667 9.16667Z" fill="white"/>
<path d="M32.9166 11.6667C32.505 11.6667 7.79996 11.6667 7.08329 11.6667C5.47246 11.6667 4.16663 10.3608 4.16663 8.75C4.16663 8.75 4.16663 29.6392 4.16663 31.25C4.16663 32.8608 5.47246 34.1667 7.08329 34.1667C7.79996 34.1667 35.8333 34.1667 35.8333 34.1667C35.8333 34.1667 35.8333 16.1942 35.8333 14.5833C35.8333 12.9725 34.5275 11.6667 32.9166 11.6667Z" fill="#448AFF"/>
<path d="M32.9166 17.5C32.6316 17.5 32.1908 17.5 31.6666 17.5V39.0625C32.1908 39.0625 32.6316 39.0625 32.9166 39.0625C34.5275 39.0625 35.8333 37.7567 35.8333 36.1458C35.8333 34.535 35.8333 14.5833 35.8333 14.5833C35.8333 16.1942 34.5275 17.5 32.9166 17.5Z" fill="#37474F"/>
<path d="M28.14 36.7175L21.9367 23.535C22.7792 22.9292 23.3334 21.9475 23.3334 20.8333C23.3334 19.285 22.2667 17.9908 20.8334 17.6183V15.8333C20.8334 15.3733 20.46 15 20 15C19.54 15 19.1667 15.3733 19.1667 15.8333V17.6183C17.7334 17.9908 16.6667 19.285 16.6667 20.8333C16.6667 21.9475 17.2209 22.9292 18.0634 23.535L11.8634 36.7108C11.51 37.4617 11.6959 38.3983 12.38 38.8675C13.2525 39.4658 14.4109 39.125 14.8417 38.2092L18.7109 29.9875C19.2242 28.8967 20.7767 28.8967 21.29 29.9875L25.1592 38.2092C25.4425 38.8133 26.0417 39.1667 26.6675 39.1667C27.01 39.1667 27.3609 39.06 27.67 38.8317C28.3184 38.3533 28.4834 37.4467 28.14 36.7175ZM20 19.1667C20.9192 19.1667 21.6667 19.9142 21.6667 20.8333C21.6667 21.7525 20.9192 22.5 20 22.5C19.0809 22.5 18.3334 21.7525 18.3334 20.8333C18.3334 19.9142 19.0809 19.1667 20 19.1667Z" fill="#37474F"/>
</svg>
