<svg width="48" height="48" viewBox="0 0 48 48" fill="none" xmlns="http://www.w3.org/2000/svg">
<g clip-path="url(#clip0_41_354)">
<path d="M13.2251 13.068L10.1227 9.96558L10.1359 32.3906L10.173 33.4387C10.1884 33.9318 10.2799 34.4883 10.4325 35.0651L35.0145 43.7332L41.1592 41.0107L41.1615 41.0032L13.2251 13.068Z" fill="#2CB7F6"/>
<path d="M10.4325 35.0652L10.434 35.0667C10.4325 35.0565 10.4272 35.0453 10.4272 35.0348C10.4272 35.0453 10.4287 35.055 10.4325 35.0652ZM41.1592 41.0108L35.0145 43.7333L10.434 35.0667C10.9035 36.8682 11.943 38.8932 13.0616 40.0005L21.0836 47.9768L38.9205 48L41.1615 41.0033L41.1592 41.0108Z" fill="#41C4FF"/>
<path d="M0.568905 24.3967C-0.225345 25.2446 0.169155 26.9936 1.4479 28.2821L6.96378 33.8437L10.4325 35.0651C10.2799 34.4883 10.1884 33.9318 10.173 33.4387L10.1359 32.3906L10.1228 9.96558L0.568905 24.3967Z" fill="#02589B"/>
<path d="M35.2162 10.2537C34.6395 10.1063 34.0864 10.0152 33.585 9.99943L32.4772 9.96118L10.1227 9.96418L41.1645 41.0033H41.1671L43.8934 34.8526L35.2162 10.2537Z" fill="#04599C"/>
<path d="M35.1881 10.2477C35.2001 10.2503 35.2095 10.2537 35.2174 10.2548L35.2162 10.2537C35.2095 10.2503 35.2001 10.2503 35.1881 10.2477ZM40.1471 12.8873C39.0206 11.7514 37.0222 10.7191 35.2174 10.2548L43.8934 34.8526L41.1671 41.0033H41.1645L47.8267 38.8756L47.841 20.6101L40.1471 12.8873Z" fill="#00A4E4"/>
<path d="M34.0009 6.80583L28.4407 1.28658C27.1549 0.0127002 25.4051 -0.383675 24.5595 0.408325L10.1227 9.96408L32.4772 9.96107L33.585 9.99933C34.0864 10.0151 34.6395 10.1062 35.2162 10.2536L34.0009 6.80583Z" fill="#2CB7F6"/>
</g>
<defs>
<clipPath id="clip0_41_354">
<rect width="48" height="48" fill="white"/>
</clipPath>
</defs>
</svg>
