<svg width="48" height="34" viewBox="0 0 48 34" fill="none" xmlns="http://www.w3.org/2000/svg">
<g clip-path="url(#clip0_41_438)">
<path d="M11.5666 30.2498H9.732C9.66713 27.1026 9.48845 24.1439 9.19634 21.3715H9.18003L6.38686 30.2498H4.99009L2.21358 21.3715H2.19763C1.99166 24.0333 1.86191 26.9927 1.80802 30.2498H0.135803C0.243574 26.2891 0.514419 22.576 0.947274 19.11H3.22109L5.8675 27.2954H5.88381L8.54652 19.11H10.7221C11.1986 23.1697 11.4801 26.8832 11.5666 30.2498ZM19.5228 22.0308C18.7759 26.1504 17.7903 29.1437 16.5673 31.0121C15.6144 32.4504 14.5703 33.1703 13.4334 33.1703C13.1303 33.1703 12.7563 33.0773 12.3132 32.8928V31.8995C12.5298 31.9312 12.784 31.9492 13.0761 31.9492C13.6071 31.9492 14.034 31.8008 14.3594 31.5032C14.7487 31.1407 14.9433 30.7333 14.9433 30.2825C14.9433 29.9734 14.7915 29.3415 14.4888 28.3845L12.4755 22.0305H14.2779L15.7228 26.7827C16.0476 27.8618 16.183 28.6151 16.1288 29.0442C16.919 26.8994 17.4709 24.5608 17.7854 22.0301H19.5228V22.0308Z" fill="#5D87A1"/>
<path d="M43.9431 30.2497H38.7319V19.1099H40.4849V28.8785H43.9431V30.2497ZM37.3677 30.5189L35.3527 29.5082C35.5314 29.3591 35.7022 29.1977 35.8561 29.0107C36.7126 27.9882 37.1398 26.4761 37.1398 24.4732C37.1398 20.7878 35.7168 18.9442 32.8697 18.9442C31.4737 18.9442 30.3846 19.4119 29.6057 20.3475C28.75 21.3708 28.3228 22.8775 28.3228 24.8695C28.3228 26.8277 28.7014 28.2642 29.459 29.1753C30.152 30.0008 31.1968 30.414 32.5939 30.414C33.115 30.414 33.5933 30.3492 34.029 30.2184L36.6523 31.7705L37.3677 30.5189ZM30.8401 28.0206C30.3963 27.295 30.1744 26.1298 30.1744 24.5233C30.1744 21.7184 31.0128 20.3144 32.6914 20.3144C33.5688 20.3144 34.2119 20.6502 34.6231 21.3203C35.0662 22.047 35.2892 23.2017 35.2892 24.7859C35.2892 27.6138 34.4501 29.028 32.7726 29.028C31.8948 29.0283 31.2517 28.6936 30.8401 28.0206ZM27.5588 27.162C27.5588 28.1067 27.2178 28.8817 26.5364 29.4888C25.8543 30.0934 24.9397 30.3964 23.7936 30.3964C22.7215 30.3964 21.6821 30.0483 20.676 29.3558L21.1472 28.3993C22.0129 28.8399 22.7967 29.059 23.5004 29.059C24.1608 29.059 24.677 28.9102 25.0514 28.6151C25.4254 28.3189 25.6484 27.9035 25.6484 27.3782C25.6484 26.7164 25.1942 26.1507 24.3611 25.6769C23.5929 25.2482 22.0565 24.3518 22.0565 24.3518C21.2237 23.735 20.8068 23.0728 20.8068 21.9818C20.8068 21.0789 21.1177 20.3501 21.7399 19.7956C22.3628 19.2389 23.1665 18.9615 24.1516 18.9615C25.1691 18.9615 26.094 19.2386 26.9271 19.7869L26.5045 20.7439C25.7919 20.4362 25.0886 20.2823 24.3948 20.2823C23.8329 20.2823 23.399 20.4196 23.0973 20.6952C22.7932 20.9698 22.6056 21.321 22.6056 21.7519C22.6056 22.4106 23.0693 22.9834 23.9251 23.4666C24.7036 23.896 26.2783 24.8079 26.2783 24.8079C27.1323 25.4236 27.5588 26.0797 27.5588 27.162Z" fill="#F8981D"/>
<path d="M46.1439 15.3788C45.0839 15.3514 44.2633 15.4598 43.5744 15.756C43.3756 15.8367 43.0593 15.8367 43.0317 16.0921C43.1391 16.2002 43.1515 16.3746 43.2448 16.5238C43.4036 16.7929 43.6804 17.155 43.9332 17.3438C44.2108 17.56 44.4894 17.774 44.7815 17.9624C45.2966 18.2863 45.8805 18.4747 46.3825 18.7976C46.675 18.9853 46.9657 19.2281 47.2585 19.4302C47.4024 19.538 47.4946 19.7127 47.6814 19.7801V19.739C47.5878 19.6179 47.5613 19.4428 47.4694 19.3081L47.0717 18.9183C46.6874 18.3937 46.2099 17.9357 45.6948 17.5596C45.2708 17.2627 44.3434 16.8592 44.1714 16.3627L44.1445 16.3353C44.4359 16.3076 44.7815 16.2002 45.0584 16.1177C45.509 15.997 45.9199 16.0244 46.3822 15.9037C46.5949 15.8497 46.8058 15.7819 47.0192 15.7153V15.5939C46.7796 15.3514 46.6087 15.0293 46.3566 14.8002C45.6824 14.2082 44.9393 13.6292 44.1714 13.1446C43.7602 12.8748 43.2313 12.7011 42.7935 12.4716C42.6357 12.3905 42.3698 12.3505 42.2769 12.2158C42.0394 11.9196 41.9058 11.5298 41.7335 11.1793C41.3506 10.4396 40.9787 9.61884 40.6483 8.83665C40.4094 8.31207 40.264 7.78821 39.9726 7.3029C38.6078 5.01507 37.1256 3.6294 34.8475 2.26931C34.3579 1.98612 33.7755 1.86542 33.1533 1.71699L32.1596 1.66366C31.9476 1.56927 31.7353 1.3131 31.5502 1.19204C30.7944 0.707817 28.8485 -0.341704 28.2926 1.04397C27.9346 1.91983 28.8223 2.78092 29.1271 3.22516C29.3523 3.53356 29.644 3.88448 29.8014 4.23468C29.8947 4.46347 29.9209 4.7063 30.0141 4.94806C30.2261 5.54037 30.4243 6.19934 30.7029 6.75202C30.8483 7.03377 31.0068 7.32992 31.1925 7.58501C31.2989 7.73417 31.4839 7.8001 31.5243 8.0433C31.3396 8.31135 31.3251 8.71596 31.2191 9.05247C30.7426 10.5732 30.9288 12.4572 31.6041 13.5748C31.8154 13.9113 32.3195 14.6521 32.9938 14.3682C33.5908 14.1261 33.4585 13.359 33.6301 12.6863C33.6695 12.5238 33.6436 12.4172 33.723 12.3106V12.3369C33.9077 12.7134 34.0942 13.0762 34.2654 13.4538C34.6763 14.1127 35.3917 14.7994 35.9876 15.2559C36.3049 15.4995 36.5562 15.916 36.9536 16.0648V16.0244H36.9274C36.8469 15.9037 36.7292 15.8497 36.6236 15.756C36.3847 15.5135 36.1202 15.2174 35.9348 14.9486C35.3796 14.1945 34.8883 13.3597 34.4522 12.4983C34.2388 12.0803 34.0548 11.6235 33.8829 11.2063C33.8028 11.0452 33.8028 10.8024 33.6698 10.7213C33.4706 11.0171 33.1802 11.2733 33.0349 11.6357C32.7828 12.2154 32.7566 12.9285 32.663 13.6699L32.6109 13.6959C32.189 13.5881 32.0423 13.1446 31.882 12.7681C31.4853 11.8119 31.4187 10.2771 31.7629 9.17388C31.8551 8.89178 32.2539 8.0033 32.0947 7.73453C32.015 7.47692 31.7498 7.33028 31.6045 7.12744C31.4336 6.87236 31.2464 6.54954 31.1273 6.26635C30.8096 5.51299 30.6498 4.6782 30.3077 3.9252C30.1478 3.57428 29.8702 3.2111 29.6454 2.88792C29.393 2.52475 29.1154 2.26895 28.9159 1.8384C28.8499 1.69033 28.7574 1.44821 28.8634 1.28716C28.8893 1.17907 28.9432 1.13872 29.0488 1.1117C29.2204 0.964343 29.7107 1.15169 29.8826 1.23276C30.3736 1.43452 30.7841 1.62295 31.1939 1.90542C31.3793 2.04052 31.5782 2.29633 31.8161 2.3637H32.0947C32.5177 2.45738 32.9945 2.38965 33.3926 2.51142C34.0942 2.74057 34.7298 3.07672 35.2999 3.43953C37.0345 4.5575 38.4649 6.14602 39.4306 8.0433C39.5891 8.35243 39.6564 8.63561 39.8011 8.95807C40.0801 9.61812 40.425 10.2911 40.7019 10.9371C40.9802 11.5694 41.2453 12.2151 41.6427 12.7404C41.8409 13.0228 42.6371 13.1709 42.9941 13.319C43.2582 13.4397 43.6695 13.5471 43.9077 13.6951C44.3583 13.9773 44.8071 14.3012 45.2307 14.6114C45.4416 14.7728 46.1046 15.1093 46.1439 15.3788ZM32.635 3.68236C32.4522 3.68043 32.2699 3.70321 32.093 3.7501V3.77712H32.1185C32.2252 3.99221 32.4106 4.14137 32.5428 4.32908C32.6495 4.54489 32.7421 4.7589 32.8467 4.97436L32.8722 4.9477C33.059 4.81331 33.1519 4.59786 33.1519 4.27468C33.0714 4.17956 33.059 4.08661 32.992 3.99221C32.914 3.85746 32.7421 3.79045 32.635 3.68236Z" fill="#5D87A1"/>
<path d="M47.4052 30.2479H47.6796V28.8832H47.268L46.9323 29.8145L46.5675 28.8832H46.1712V30.2479H46.4303V29.2096H46.4449L46.827 30.2479H47.0245L47.4052 29.2096V30.2479ZM45.1949 30.2479H45.4852V29.1145H45.8652V28.8828H44.7989V29.1145H45.1942L45.1949 30.2479Z" fill="#F8981D"/>
</g>
<defs>
<clipPath id="clip0_41_438">
<rect width="48" height="33" fill="white" transform="translate(0 0.5)"/>
</clipPath>
</defs>
</svg>
