<svg width="48" height="26" viewBox="0 0 48 26" fill="none" xmlns="http://www.w3.org/2000/svg">
<path fill-rule="evenodd" clip-rule="evenodd" d="M24 25.1626C37.2549 25.1626 48 19.717 48 13C48 6.28307 37.2549 0.837524 24 0.837524C10.7454 0.837524 0 6.28307 0 13C0 19.717 10.7454 25.1626 24 25.1626Z" fill="#6E81B6"/>
<path fill-rule="evenodd" clip-rule="evenodd" d="M28.8619 16.9313L30.0523 10.8043C30.321 9.42145 30.0976 8.39004 29.3886 7.73822C28.7017 7.10759 27.5356 6.80084 25.8239 6.80084H23.7622L24.352 3.76521C24.363 3.70871 24.3614 3.65047 24.3473 3.59466C24.3332 3.53885 24.3069 3.48686 24.2703 3.44242C24.2337 3.39797 24.1877 3.36218 24.1356 3.33761C24.0836 3.31304 24.0267 3.30029 23.9692 3.30029H21.1236C20.9367 3.30029 20.7762 3.43292 20.7405 3.61633L19.4761 10.1209C19.3612 9.38895 19.0779 8.75977 18.6246 8.24058C17.79 7.2852 16.4698 6.80084 14.7004 6.80084H9.18516C8.99826 6.80084 8.83777 6.93346 8.80207 7.11659L6.24327 20.283C6.22092 20.3976 6.25082 20.5154 6.32511 20.6054C6.39911 20.6956 6.5094 20.7476 6.62635 20.7476H9.49423C9.68113 20.7476 9.84162 20.615 9.87731 20.4313L10.4963 17.2467H12.6311C13.7514 17.2467 14.6928 17.1254 15.4276 16.8863C16.179 16.6419 16.8706 16.2275 17.48 15.657C17.9725 15.2045 18.3794 14.6978 18.6925 14.1513L18.1815 16.7818C18.1591 16.8965 18.189 17.0149 18.2633 17.1043C18.3373 17.1945 18.4479 17.2465 18.5645 17.2465H21.4101C21.597 17.2465 21.7575 17.1138 21.7931 16.9307L23.1975 9.70354H25.15C25.9821 9.70354 26.2259 9.86925 26.2923 9.94036C26.3524 10.0054 26.4772 10.2343 26.337 10.9561L25.2052 16.7815C25.1943 16.838 25.1961 16.8962 25.2103 16.9519C25.2245 17.0077 25.2509 17.0596 25.2875 17.1039C25.324 17.1483 25.37 17.1841 25.422 17.2086C25.474 17.2332 25.5307 17.246 25.5883 17.2462H28.4791C28.5695 17.2463 28.6572 17.215 28.7271 17.1575C28.7969 17.1001 28.8446 17.0201 28.8619 16.9313ZM15.6694 11.8688C15.4906 12.7873 15.154 13.4424 14.6681 13.8159C14.1748 14.1963 13.3857 14.389 12.3226 14.389H11.0515L11.9706 9.65914H13.6141C14.8214 9.65914 15.3078 9.91714 15.5031 10.1333C15.7739 10.4334 15.8313 11.0339 15.6694 11.8688ZM40.8479 8.24058C40.0136 7.2852 38.6934 6.80084 36.924 6.80084H31.4088C31.2216 6.80084 31.0614 6.93346 31.0257 7.11659L28.4672 20.283C28.4445 20.3976 28.4744 20.5154 28.5487 20.6054C28.623 20.6953 28.7336 20.7476 28.8497 20.7476H31.7178C31.905 20.7476 32.0652 20.615 32.1009 20.4313L32.7199 17.2467H34.855C35.9755 17.2467 36.9161 17.1254 37.6512 16.8863C38.4029 16.6419 39.0945 16.2275 39.7036 15.657C40.2121 15.19 40.6303 14.665 40.9472 14.0982C41.2641 13.5314 41.4913 12.8994 41.624 12.2191C41.9499 10.5414 41.689 9.20293 40.8479 8.24058ZM38.0558 11.8688C37.8767 12.7873 37.5401 13.4424 37.0548 13.8159C36.5612 14.1963 35.7721 14.389 34.7093 14.389H33.4379L34.3567 9.65914H36.0005C37.2078 9.65914 37.6942 9.91714 37.8898 10.1333C38.16 10.4334 38.2177 11.0339 38.0558 11.8688Z" fill="white"/>
<path fill-rule="evenodd" clip-rule="evenodd" d="M13.6142 9.26873C14.7037 9.26873 15.4301 9.46984 15.7932 9.87208C16.1559 10.2743 16.2424 10.965 16.0526 11.9433C15.8541 12.9623 15.4722 13.6895 14.9063 14.1254C14.3404 14.5613 13.479 14.779 12.3228 14.779H10.578L11.6489 9.26873H13.6142ZM6.62622 20.3572H9.4941L10.1746 16.8569H12.6313C13.7152 16.8569 14.6071 16.7429 15.3071 16.515C16.0071 16.2872 16.6435 15.9056 17.2161 15.3696C17.6967 14.9282 18.0856 14.4406 18.3833 13.9078C18.6808 13.3749 18.8921 12.7873 19.0171 12.1444C19.3207 10.5837 19.0917 9.36798 18.3308 8.49734C17.5701 7.62641 16.3597 7.19109 14.7005 7.19109H9.18532L6.62622 20.3572ZM21.1235 3.69055H23.969L23.2888 7.19109H25.8241C27.4185 7.19109 28.5193 7.46912 29.1247 8.02546C29.73 8.58179 29.9114 9.48348 29.6694 10.7299L28.4789 16.8569H25.5881L26.72 11.0312C26.8485 10.3683 26.8015 9.91648 26.5778 9.67531C26.354 9.43444 25.8778 9.31371 25.1499 9.31371H22.8758L21.4099 16.8569H18.5644L21.1235 3.69055ZM36.0007 9.26873C37.0901 9.26873 37.8162 9.46984 38.1796 9.87208C38.5423 10.2743 38.6285 10.965 38.4387 11.9433C38.2408 12.9623 37.8589 13.6895 37.2927 14.1254C36.7271 14.5613 35.8654 14.779 34.7098 14.779H32.965L34.0356 9.26873H36.0007ZM29.0121 20.3572H31.8802L32.5605 16.8569H35.0171C36.1014 16.8569 36.9932 16.7429 37.6932 16.515C38.3932 16.2872 39.0296 15.9056 39.6022 15.3696C40.0828 14.9282 40.4717 14.4406 40.7691 13.9078C41.0666 13.3749 41.2782 12.7873 41.4035 12.1444C41.7068 10.5837 41.4778 9.36798 40.7172 8.49734C39.956 7.62641 38.7458 7.19109 37.0866 7.19109H31.5714L29.0121 20.3572Z" fill="black"/>
</svg>
