<svg width="48" height="30" viewBox="0 0 48 30" fill="none" xmlns="http://www.w3.org/2000/svg">
<g clip-path="url(#clip0_41_335)">
<path d="M24 0.5C17.6023 0.5 13.604 3.72229 12.0044 10.1663C14.4038 6.94397 17.2027 5.73607 20.4013 6.54134C22.2264 7.0008 23.5308 8.33506 24.975 9.81139C27.3269 12.2163 30.0491 14.9997 35.9955 14.9997C42.3926 14.9997 46.3915 11.7774 47.9905 5.33283C45.5917 8.55512 42.7928 9.76363 39.5937 8.95836C37.7691 8.49889 36.4647 7.16464 35.0206 5.68831C32.6686 3.28338 29.9459 0.5 24 0.5ZM12.0044 14.9997C5.60738 14.9997 1.60846 18.222 0.00949097 24.6666C2.40824 21.4443 5.20718 20.2358 8.40632 21.0416C10.2309 21.5017 11.5353 22.8354 12.9794 24.3111C15.3314 26.716 18.0541 29.5 24 29.5C30.3977 29.5 34.396 26.2777 35.9955 19.8331C33.5962 23.0554 30.7973 24.2639 27.5987 23.4581C25.7736 22.9992 24.4692 21.6643 23.025 20.1886C20.6731 17.7837 17.9509 14.9997 12.0044 14.9997Z" fill="#38BDF8"/>
</g>
<defs>
<clipPath id="clip0_41_335">
<rect width="48" height="29" fill="white" transform="translate(0 0.5)"/>
</clipPath>
</defs>
</svg>
