<svg width="38" height="36" viewBox="0 0 38 36" fill="none" xmlns="http://www.w3.org/2000/svg">
<path d="M35.6667 7.25831V28.7416C35.6667 29.8 35.0084 30.7416 34.0167 31.0916L26.6667 34.5416L27.3334 25.5V10.5L26.6667 1.45831L34.0167 4.90831C35.0084 5.25831 35.6667 6.19998 35.6667 7.25831Z" fill="#29B6F6"/>
<path d="M6.50002 26.2467L27.3333 10.5V2.46083C27.3333 1.4625 26.0983 0.99583 25.4375 1.74416L2.88168 22.3658C2.13168 23.0575 2.17418 24.255 2.97085 24.8925C2.97085 24.8925 4.07418 25.9192 4.47335 26.2042C5.08668 26.6417 5.89252 26.6917 6.50002 26.2467Z" fill="#0277BD"/>
<path d="M6.50002 9.75334L27.3333 25.5V33.5392C27.3333 34.5375 26.0983 35.0042 25.4375 34.2558L2.88168 13.6342C2.13168 12.9425 2.17418 11.745 2.97085 11.1075C2.97085 11.1075 4.07418 10.0808 4.47335 9.79584C5.08668 9.35834 5.89252 9.30834 6.50002 9.75334Z" fill="#0288D1"/>
</svg>
