<svg width="200" height="200" viewBox="0 0 200 200" fill="none" xmlns="http://www.w3.org/2000/svg">
<path d="M0 4C0 1.79087 1.79086 0 4 0H19.3333C21.5425 0 23.3333 1.79086 23.3333 4V11.3333C23.3333 17.9607 17.9608 23.3333 11.3333 23.3333H4C1.79087 23.3333 0 21.5425 0 19.3333V4Z" fill="white" fill-opacity="0.1"/>
<path d="M35.3334 4C35.3334 1.79087 37.1242 0 39.3334 0H54.6667C56.8758 0 58.6667 1.79086 58.6667 4V11.3333C58.6667 17.9607 53.2941 23.3333 46.6667 23.3333H39.3334C37.1242 23.3333 35.3334 21.5425 35.3334 19.3333V4Z" fill="white" fill-opacity="0.1"/>
<path d="M70.6666 4C70.6666 1.79087 72.4575 0 74.6666 0H90C92.2091 0 94 1.79086 94 4V11.3333C94 17.9607 88.6274 23.3333 82 23.3333H74.6666C72.4575 23.3333 70.6666 21.5425 70.6666 19.3333V4Z" fill="white" fill-opacity="0.1"/>
<path d="M106 4C106 1.79087 107.791 0 110 0H125.333C127.542 0 129.333 1.79086 129.333 4V11.3333C129.333 17.9607 123.961 23.3333 117.333 23.3333H110C107.791 23.3333 106 21.5425 106 19.3333V4Z" fill="white" fill-opacity="0.1"/>
<path d="M141.333 4C141.333 1.79087 143.124 0 145.333 0H160.667C162.876 0 164.667 1.79086 164.667 4V11.3333C164.667 17.9607 159.294 23.3333 152.667 23.3333H145.333C143.124 23.3333 141.333 21.5425 141.333 19.3333V4Z" fill="white" fill-opacity="0.1"/>
<path d="M176.667 4C176.667 1.79087 178.457 0 180.667 0H196C198.209 0 200 1.79086 200 4V11.3333C200 17.9607 194.627 23.3333 188 23.3333H180.667C178.457 23.3333 176.667 21.5425 176.667 19.3333V4Z" fill="white" fill-opacity="0.1"/>
<path d="M0 39.3335C0 37.1244 1.79086 35.3335 4 35.3335H19.3333C21.5425 35.3335 23.3333 37.1244 23.3333 39.3335V46.6668C23.3333 53.2942 17.9608 58.6668 11.3333 58.6668H4C1.79087 58.6668 0 56.876 0 54.6668V39.3335Z" fill="white" fill-opacity="0.1"/>
<path d="M35.3334 39.3335C35.3334 37.1244 37.1242 35.3335 39.3334 35.3335H54.6667C56.8758 35.3335 58.6667 37.1244 58.6667 39.3335V46.6668C58.6667 53.2942 53.2941 58.6668 46.6667 58.6668H39.3334C37.1242 58.6668 35.3334 56.876 35.3334 54.6668V39.3335Z" fill="white" fill-opacity="0.1"/>
<path d="M70.6666 39.3335C70.6666 37.1244 72.4575 35.3335 74.6666 35.3335H90C92.2091 35.3335 94 37.1244 94 39.3335V46.6668C94 53.2942 88.6274 58.6668 82 58.6668H74.6666C72.4575 58.6668 70.6666 56.876 70.6666 54.6668V39.3335Z" fill="white" fill-opacity="0.1"/>
<path d="M106 39.3335C106 37.1244 107.791 35.3335 110 35.3335H125.333C127.542 35.3335 129.333 37.1244 129.333 39.3335V46.6668C129.333 53.2942 123.961 58.6668 117.333 58.6668H110C107.791 58.6668 106 56.876 106 54.6668V39.3335Z" fill="white" fill-opacity="0.1"/>
<path d="M141.333 39.3335C141.333 37.1244 143.124 35.3335 145.333 35.3335H160.667C162.876 35.3335 164.667 37.1244 164.667 39.3335V46.6668C164.667 53.2942 159.294 58.6668 152.667 58.6668H145.333C143.124 58.6668 141.333 56.876 141.333 54.6668V39.3335Z" fill="white" fill-opacity="0.1"/>
<path d="M176.667 39.3335C176.667 37.1244 178.457 35.3335 180.667 35.3335H196C198.209 35.3335 200 37.1244 200 39.3335V46.6668C200 53.2942 194.627 58.6668 188 58.6668H180.667C178.457 58.6668 176.667 56.876 176.667 54.6668V39.3335Z" fill="white" fill-opacity="0.1"/>
<path d="M0 74.6665C0 72.4574 1.79086 70.6665 4 70.6665H19.3333C21.5425 70.6665 23.3333 72.4574 23.3333 74.6665V81.9998C23.3333 88.6273 17.9608 93.9998 11.3333 93.9998H4C1.79087 93.9998 0 92.209 0 89.9998V74.6665Z" fill="white" fill-opacity="0.1"/>
<path d="M35.3334 74.6665C35.3334 72.4574 37.1242 70.6665 39.3334 70.6665H54.6667C56.8758 70.6665 58.6667 72.4574 58.6667 74.6665V81.9998C58.6667 88.6273 53.2941 93.9998 46.6667 93.9998H39.3334C37.1242 93.9998 35.3334 92.209 35.3334 89.9998V74.6665Z" fill="white" fill-opacity="0.1"/>
<path d="M70.6666 74.6665C70.6666 72.4574 72.4575 70.6665 74.6666 70.6665H90C92.2091 70.6665 94 72.4574 94 74.6665V81.9998C94 88.6273 88.6274 93.9998 82 93.9998H74.6666C72.4575 93.9998 70.6666 92.209 70.6666 89.9998V74.6665Z" fill="white" fill-opacity="0.1"/>
<path d="M106 74.6665C106 72.4574 107.791 70.6665 110 70.6665H125.333C127.542 70.6665 129.333 72.4574 129.333 74.6665V81.9998C129.333 88.6273 123.961 93.9998 117.333 93.9998H110C107.791 93.9998 106 92.209 106 89.9998V74.6665Z" fill="white" fill-opacity="0.1"/>
<path d="M141.333 74.6665C141.333 72.4574 143.124 70.6665 145.333 70.6665H160.667C162.876 70.6665 164.667 72.4574 164.667 74.6665V81.9998C164.667 88.6273 159.294 93.9998 152.667 93.9998H145.333C143.124 93.9998 141.333 92.209 141.333 89.9998V74.6665Z" fill="white" fill-opacity="0.1"/>
<path d="M176.667 74.6665C176.667 72.4574 178.457 70.6665 180.667 70.6665H196C198.209 70.6665 200 72.4574 200 74.6665V81.9998C200 88.6273 194.627 93.9998 188 93.9998H180.667C178.457 93.9998 176.667 92.209 176.667 89.9998V74.6665Z" fill="white" fill-opacity="0.1"/>
<path d="M0 110C0 107.791 1.79086 106 4 106H19.3333C21.5425 106 23.3333 107.791 23.3333 110V117.333C23.3333 123.961 17.9608 129.333 11.3333 129.333H4C1.79087 129.333 0 127.542 0 125.333V110Z" fill="white" fill-opacity="0.1"/>
<path d="M35.3334 110C35.3334 107.791 37.1242 106 39.3334 106H54.6667C56.8758 106 58.6667 107.791 58.6667 110V117.333C58.6667 123.961 53.2941 129.333 46.6667 129.333H39.3334C37.1242 129.333 35.3334 127.542 35.3334 125.333V110Z" fill="white" fill-opacity="0.1"/>
<path d="M70.6666 110C70.6666 107.791 72.4575 106 74.6666 106H90C92.2091 106 94 107.791 94 110V117.333C94 123.961 88.6274 129.333 82 129.333H74.6666C72.4575 129.333 70.6666 127.542 70.6666 125.333V110Z" fill="white" fill-opacity="0.1"/>
<path d="M106 110C106 107.791 107.791 106 110 106H125.333C127.542 106 129.333 107.791 129.333 110V117.333C129.333 123.961 123.961 129.333 117.333 129.333H110C107.791 129.333 106 127.542 106 125.333V110Z" fill="white" fill-opacity="0.1"/>
<path d="M141.333 110C141.333 107.791 143.124 106 145.333 106H160.667C162.876 106 164.667 107.791 164.667 110V117.333C164.667 123.961 159.294 129.333 152.667 129.333H145.333C143.124 129.333 141.333 127.542 141.333 125.333V110Z" fill="white" fill-opacity="0.1"/>
<path d="M176.667 110C176.667 107.791 178.457 106 180.667 106H196C198.209 106 200 107.791 200 110V117.333C200 123.961 194.627 129.333 188 129.333H180.667C178.457 129.333 176.667 127.542 176.667 125.333V110Z" fill="white" fill-opacity="0.1"/>
<path d="M0 145.334C0 143.124 1.79086 141.333 4 141.333H19.3333C21.5425 141.333 23.3333 143.124 23.3333 145.333V152.667C23.3333 159.294 17.9608 164.667 11.3333 164.667H4C1.79087 164.667 0 162.876 0 160.667V145.334Z" fill="white" fill-opacity="0.1"/>
<path d="M35.3334 145.334C35.3334 143.124 37.1242 141.333 39.3334 141.333H54.6667C56.8758 141.333 58.6667 143.124 58.6667 145.333V152.667C58.6667 159.294 53.2941 164.667 46.6667 164.667H39.3334C37.1242 164.667 35.3334 162.876 35.3334 160.667V145.334Z" fill="white" fill-opacity="0.1"/>
<path d="M70.6666 145.334C70.6666 143.124 72.4575 141.333 74.6666 141.333H90C92.2091 141.333 94 143.124 94 145.333V152.667C94 159.294 88.6274 164.667 82 164.667H74.6666C72.4575 164.667 70.6666 162.876 70.6666 160.667V145.334Z" fill="white" fill-opacity="0.1"/>
<path d="M106 145.334C106 143.124 107.791 141.333 110 141.333H125.333C127.542 141.333 129.333 143.124 129.333 145.333V152.667C129.333 159.294 123.961 164.667 117.333 164.667H110C107.791 164.667 106 162.876 106 160.667V145.334Z" fill="white" fill-opacity="0.1"/>
<path d="M141.333 145.334C141.333 143.124 143.124 141.333 145.333 141.333H160.667C162.876 141.333 164.667 143.124 164.667 145.333V152.667C164.667 159.294 159.294 164.667 152.667 164.667H145.333C143.124 164.667 141.333 162.876 141.333 160.667V145.334Z" fill="white" fill-opacity="0.1"/>
<path d="M176.667 145.334C176.667 143.124 178.457 141.333 180.667 141.333H196C198.209 141.333 200 143.124 200 145.333V152.667C200 159.294 194.627 164.667 188 164.667H180.667C178.457 164.667 176.667 162.876 176.667 160.667V145.334Z" fill="white" fill-opacity="0.1"/>
<path d="M0 180.667C0 178.457 1.79086 176.667 4 176.667H19.3333C21.5425 176.667 23.3333 178.457 23.3333 180.667V188C23.3333 194.627 17.9608 200 11.3333 200H4C1.79087 200 0 198.209 0 196V180.667Z" fill="white" fill-opacity="0.1"/>
<path d="M35.3334 180.667C35.3334 178.457 37.1242 176.667 39.3334 176.667H54.6667C56.8758 176.667 58.6667 178.457 58.6667 180.667V188C58.6667 194.627 53.2941 200 46.6667 200H39.3334C37.1242 200 35.3334 198.209 35.3334 196V180.667Z" fill="white" fill-opacity="0.1"/>
<path d="M70.6666 180.667C70.6666 178.457 72.4575 176.667 74.6666 176.667H90C92.2091 176.667 94 178.457 94 180.667V188C94 194.627 88.6274 200 82 200H74.6666C72.4575 200 70.6666 198.209 70.6666 196V180.667Z" fill="white" fill-opacity="0.1"/>
<path d="M106 180.667C106 178.457 107.791 176.667 110 176.667H125.333C127.542 176.667 129.333 178.457 129.333 180.667V188C129.333 194.627 123.961 200 117.333 200H110C107.791 200 106 198.209 106 196V180.667Z" fill="white" fill-opacity="0.1"/>
<path d="M141.333 180.667C141.333 178.457 143.124 176.667 145.333 176.667H160.667C162.876 176.667 164.667 178.457 164.667 180.667V188C164.667 194.627 159.294 200 152.667 200H145.333C143.124 200 141.333 198.209 141.333 196V180.667Z" fill="white" fill-opacity="0.1"/>
<path d="M176.667 180.667C176.667 178.457 178.457 176.667 180.667 176.667H196C198.209 176.667 200 178.457 200 180.667V188C200 194.627 194.627 200 188 200H180.667C178.457 200 176.667 198.209 176.667 196V180.667Z" fill="white" fill-opacity="0.1"/>
</svg>
