<svg width="200" height="200" viewBox="0 0 200 200" fill="none" xmlns="http://www.w3.org/2000/svg">
<path d="M0 4C0 1.79087 1.79086 0 4 0H19.3333C21.5425 0 23.3333 1.79086 23.3333 4V11.3333C23.3333 17.9607 17.9608 23.3333 11.3333 23.3333H4C1.79087 23.3333 0 21.5425 0 19.3333V4Z" fill="#143FFF" fill-opacity="0.1"/>
<path d="M35.3333 4C35.3333 1.79087 37.1242 0 39.3333 0H54.6667C56.8758 0 58.6667 1.79086 58.6667 4V11.3333C58.6667 17.9607 53.2941 23.3333 46.6667 23.3333H39.3333C37.1242 23.3333 35.3333 21.5425 35.3333 19.3333V4Z" fill="#143FFF" fill-opacity="0.1"/>
<path d="M70.6667 4C70.6667 1.79087 72.4575 0 74.6667 0H90C92.2091 0 94 1.79086 94 4V11.3333C94 17.9607 88.6274 23.3333 82 23.3333H74.6667C72.4575 23.3333 70.6667 21.5425 70.6667 19.3333V4Z" fill="#143FFF" fill-opacity="0.1"/>
<path d="M106 4C106 1.79087 107.791 0 110 0H125.333C127.542 0 129.333 1.79086 129.333 4V11.3333C129.333 17.9607 123.961 23.3333 117.333 23.3333H110C107.791 23.3333 106 21.5425 106 19.3333V4Z" fill="#143FFF" fill-opacity="0.1"/>
<path d="M141.333 4C141.333 1.79087 143.124 0 145.333 0H160.667C162.876 0 164.667 1.79086 164.667 4V11.3333C164.667 17.9607 159.294 23.3333 152.667 23.3333H145.333C143.124 23.3333 141.333 21.5425 141.333 19.3333V4Z" fill="#143FFF" fill-opacity="0.1"/>
<path d="M176.667 4C176.667 1.79087 178.458 0 180.667 0H196C198.209 0 200 1.79086 200 4V11.3333C200 17.9607 194.627 23.3333 188 23.3333H180.667C178.458 23.3333 176.667 21.5425 176.667 19.3333V4Z" fill="#143FFF" fill-opacity="0.1"/>
<path d="M0 39.3333C0 37.1242 1.79086 35.3333 4 35.3333H19.3333C21.5425 35.3333 23.3333 37.1242 23.3333 39.3333V46.6667C23.3333 53.2941 17.9608 58.6667 11.3333 58.6667H4C1.79087 58.6667 0 56.8758 0 54.6667V39.3333Z" fill="#143FFF" fill-opacity="0.1"/>
<path d="M35.3333 39.3333C35.3333 37.1242 37.1242 35.3333 39.3333 35.3333H54.6667C56.8758 35.3333 58.6667 37.1242 58.6667 39.3333V46.6667C58.6667 53.2941 53.2941 58.6667 46.6667 58.6667H39.3333C37.1242 58.6667 35.3333 56.8758 35.3333 54.6667V39.3333Z" fill="#143FFF" fill-opacity="0.1"/>
<path d="M70.6667 39.3333C70.6667 37.1242 72.4575 35.3333 74.6667 35.3333H90C92.2091 35.3333 94 37.1242 94 39.3333V46.6667C94 53.2941 88.6274 58.6667 82 58.6667H74.6667C72.4575 58.6667 70.6667 56.8758 70.6667 54.6667V39.3333Z" fill="#143FFF" fill-opacity="0.1"/>
<path d="M106 39.3333C106 37.1242 107.791 35.3333 110 35.3333H125.333C127.542 35.3333 129.333 37.1242 129.333 39.3333V46.6667C129.333 53.2941 123.961 58.6667 117.333 58.6667H110C107.791 58.6667 106 56.8758 106 54.6667V39.3333Z" fill="#143FFF" fill-opacity="0.1"/>
<path d="M141.333 39.3333C141.333 37.1242 143.124 35.3333 145.333 35.3333H160.667C162.876 35.3333 164.667 37.1242 164.667 39.3333V46.6667C164.667 53.2941 159.294 58.6667 152.667 58.6667H145.333C143.124 58.6667 141.333 56.8758 141.333 54.6667V39.3333Z" fill="#143FFF" fill-opacity="0.1"/>
<path d="M176.667 39.3333C176.667 37.1242 178.458 35.3333 180.667 35.3333H196C198.209 35.3333 200 37.1242 200 39.3333V46.6667C200 53.2941 194.627 58.6667 188 58.6667H180.667C178.458 58.6667 176.667 56.8758 176.667 54.6667V39.3333Z" fill="#143FFF" fill-opacity="0.1"/>
<path d="M0 74.6667C0 72.4576 1.79086 70.6667 4 70.6667H19.3333C21.5425 70.6667 23.3333 72.4575 23.3333 74.6667V82C23.3333 88.6274 17.9608 94 11.3333 94H4C1.79087 94 0 92.2092 0 90V74.6667Z" fill="#143FFF" fill-opacity="0.1"/>
<path d="M35.3333 74.6667C35.3333 72.4576 37.1242 70.6667 39.3333 70.6667H54.6667C56.8758 70.6667 58.6667 72.4575 58.6667 74.6667V82C58.6667 88.6274 53.2941 94 46.6667 94H39.3333C37.1242 94 35.3333 92.2092 35.3333 90V74.6667Z" fill="#143FFF" fill-opacity="0.1"/>
<path d="M70.6667 74.6667C70.6667 72.4576 72.4575 70.6667 74.6667 70.6667H90C92.2091 70.6667 94 72.4575 94 74.6667V82C94 88.6274 88.6274 94 82 94H74.6667C72.4575 94 70.6667 92.2092 70.6667 90V74.6667Z" fill="#143FFF" fill-opacity="0.1"/>
<path d="M106 74.6667C106 72.4576 107.791 70.6667 110 70.6667H125.333C127.542 70.6667 129.333 72.4575 129.333 74.6667V82C129.333 88.6274 123.961 94 117.333 94H110C107.791 94 106 92.2092 106 90V74.6667Z" fill="#143FFF" fill-opacity="0.1"/>
<path d="M141.333 74.6667C141.333 72.4576 143.124 70.6667 145.333 70.6667H160.667C162.876 70.6667 164.667 72.4575 164.667 74.6667V82C164.667 88.6274 159.294 94 152.667 94H145.333C143.124 94 141.333 92.2092 141.333 90V74.6667Z" fill="#143FFF" fill-opacity="0.1"/>
<path d="M176.667 74.6667C176.667 72.4576 178.458 70.6667 180.667 70.6667H196C198.209 70.6667 200 72.4575 200 74.6667V82C200 88.6274 194.627 94 188 94H180.667C178.458 94 176.667 92.2092 176.667 90V74.6667Z" fill="#143FFF" fill-opacity="0.1"/>
<path d="M0 110C0 107.791 1.79086 106 4 106H19.3333C21.5425 106 23.3333 107.791 23.3333 110V117.333C23.3333 123.961 17.9608 129.333 11.3333 129.333H4C1.79087 129.333 0 127.542 0 125.333V110Z" fill="#143FFF" fill-opacity="0.1"/>
<path d="M35.3333 110C35.3333 107.791 37.1242 106 39.3333 106H54.6667C56.8758 106 58.6667 107.791 58.6667 110V117.333C58.6667 123.961 53.2941 129.333 46.6667 129.333H39.3333C37.1242 129.333 35.3333 127.542 35.3333 125.333V110Z" fill="#143FFF" fill-opacity="0.1"/>
<path d="M70.6667 110C70.6667 107.791 72.4575 106 74.6667 106H90C92.2091 106 94 107.791 94 110V117.333C94 123.961 88.6274 129.333 82 129.333H74.6667C72.4575 129.333 70.6667 127.542 70.6667 125.333V110Z" fill="#143FFF" fill-opacity="0.1"/>
<path d="M106 110C106 107.791 107.791 106 110 106H125.333C127.542 106 129.333 107.791 129.333 110V117.333C129.333 123.961 123.961 129.333 117.333 129.333H110C107.791 129.333 106 127.542 106 125.333V110Z" fill="#143FFF" fill-opacity="0.1"/>
<path d="M141.333 110C141.333 107.791 143.124 106 145.333 106H160.667C162.876 106 164.667 107.791 164.667 110V117.333C164.667 123.961 159.294 129.333 152.667 129.333H145.333C143.124 129.333 141.333 127.542 141.333 125.333V110Z" fill="#143FFF" fill-opacity="0.1"/>
<path d="M176.667 110C176.667 107.791 178.458 106 180.667 106H196C198.209 106 200 107.791 200 110V117.333C200 123.961 194.627 129.333 188 129.333H180.667C178.458 129.333 176.667 127.542 176.667 125.333V110Z" fill="#143FFF" fill-opacity="0.1"/>
<path d="M0 145.333C0 143.124 1.79086 141.333 4 141.333H19.3333C21.5425 141.333 23.3333 143.124 23.3333 145.333V152.667C23.3333 159.294 17.9608 164.667 11.3333 164.667H4C1.79087 164.667 0 162.876 0 160.667V145.333Z" fill="#143FFF" fill-opacity="0.1"/>
<path d="M35.3333 145.333C35.3333 143.124 37.1242 141.333 39.3333 141.333H54.6667C56.8758 141.333 58.6667 143.124 58.6667 145.333V152.667C58.6667 159.294 53.2941 164.667 46.6667 164.667H39.3333C37.1242 164.667 35.3333 162.876 35.3333 160.667V145.333Z" fill="#143FFF" fill-opacity="0.1"/>
<path d="M70.6667 145.333C70.6667 143.124 72.4575 141.333 74.6667 141.333H90C92.2091 141.333 94 143.124 94 145.333V152.667C94 159.294 88.6274 164.667 82 164.667H74.6667C72.4575 164.667 70.6667 162.876 70.6667 160.667V145.333Z" fill="#143FFF" fill-opacity="0.1"/>
<path d="M106 145.333C106 143.124 107.791 141.333 110 141.333H125.333C127.542 141.333 129.333 143.124 129.333 145.333V152.667C129.333 159.294 123.961 164.667 117.333 164.667H110C107.791 164.667 106 162.876 106 160.667V145.333Z" fill="#143FFF" fill-opacity="0.1"/>
<path d="M141.333 145.333C141.333 143.124 143.124 141.333 145.333 141.333H160.667C162.876 141.333 164.667 143.124 164.667 145.333V152.667C164.667 159.294 159.294 164.667 152.667 164.667H145.333C143.124 164.667 141.333 162.876 141.333 160.667V145.333Z" fill="#143FFF" fill-opacity="0.1"/>
<path d="M176.667 145.333C176.667 143.124 178.458 141.333 180.667 141.333H196C198.209 141.333 200 143.124 200 145.333V152.667C200 159.294 194.627 164.667 188 164.667H180.667C178.458 164.667 176.667 162.876 176.667 160.667V145.333Z" fill="#143FFF" fill-opacity="0.1"/>
<path d="M0 180.667C0 178.458 1.79086 176.667 4 176.667H19.3333C21.5425 176.667 23.3333 178.458 23.3333 180.667V188C23.3333 194.627 17.9608 200 11.3333 200H4C1.79087 200 0 198.209 0 196V180.667Z" fill="#143FFF" fill-opacity="0.1"/>
<path d="M35.3333 180.667C35.3333 178.458 37.1242 176.667 39.3333 176.667H54.6667C56.8758 176.667 58.6667 178.458 58.6667 180.667V188C58.6667 194.627 53.2941 200 46.6667 200H39.3333C37.1242 200 35.3333 198.209 35.3333 196V180.667Z" fill="#143FFF" fill-opacity="0.1"/>
<path d="M70.6667 180.667C70.6667 178.458 72.4575 176.667 74.6667 176.667H90C92.2091 176.667 94 178.458 94 180.667V188C94 194.627 88.6274 200 82 200H74.6667C72.4575 200 70.6667 198.209 70.6667 196V180.667Z" fill="#143FFF" fill-opacity="0.1"/>
<path d="M106 180.667C106 178.458 107.791 176.667 110 176.667H125.333C127.542 176.667 129.333 178.458 129.333 180.667V188C129.333 194.627 123.961 200 117.333 200H110C107.791 200 106 198.209 106 196V180.667Z" fill="#143FFF" fill-opacity="0.1"/>
<path d="M141.333 180.667C141.333 178.458 143.124 176.667 145.333 176.667H160.667C162.876 176.667 164.667 178.458 164.667 180.667V188C164.667 194.627 159.294 200 152.667 200H145.333C143.124 200 141.333 198.209 141.333 196V180.667Z" fill="#143FFF" fill-opacity="0.1"/>
<path d="M176.667 180.667C176.667 178.458 178.458 176.667 180.667 176.667H196C198.209 176.667 200 178.458 200 180.667V188C200 194.627 194.627 200 188 200H180.667C178.458 200 176.667 198.209 176.667 196V180.667Z" fill="#143FFF" fill-opacity="0.1"/>
</svg>
